<mxfile host="app.diagrams.net" agent="Mozilla/5.0 (Windows NT 10.0; Win64; x64) AppleWebKit/537.36 (KHTML, like Gecko) Chrome/134.0.0.0 Safari/537.36" version="26.1.1">
  <diagram name="第 1 页" id="Zdgfmw_aMyUBggaqdxxg">
    <mxGraphModel dx="1050" dy="522" grid="1" gridSize="10" guides="1" tooltips="1" connect="1" arrows="1" fold="1" page="1" pageScale="1" pageWidth="827" pageHeight="1169" math="0" shadow="0">
      <root>
        <mxCell id="0" />
        <mxCell id="1" parent="0" />
        <mxCell id="o-w49enw5CKkFs7Kxk6n-1" value="" style="rounded=1;whiteSpace=wrap;html=1;shadow=1;gradientColor=light-dark(#E3F6FF,#081B1C);gradientDirection=north;" vertex="1" parent="1">
          <mxGeometry x="120" y="130" width="600" height="370" as="geometry" />
        </mxCell>
        <mxCell id="o-w49enw5CKkFs7Kxk6n-2" value="&lt;font style=&quot;font-size: 20px;&quot;&gt;人工智能&lt;/font&gt;" style="text;strokeColor=none;align=center;fillColor=none;html=1;verticalAlign=middle;whiteSpace=wrap;rounded=0;" vertex="1" parent="1">
          <mxGeometry x="369" y="137" width="100" height="30" as="geometry" />
        </mxCell>
        <mxCell id="o-w49enw5CKkFs7Kxk6n-3" value="" style="rounded=1;whiteSpace=wrap;html=1;shadow=1;gradientColor=light-dark(#e1f5ff, #00404B);gradientDirection=north;" vertex="1" parent="1">
          <mxGeometry x="180" y="170" width="490" height="300" as="geometry" />
        </mxCell>
        <mxCell id="o-w49enw5CKkFs7Kxk6n-5" value="" style="rounded=1;whiteSpace=wrap;html=1;opacity=50;gradientColor=#E1F5FF;gradientDirection=north;" vertex="1" parent="1">
          <mxGeometry x="243" y="220" width="200" height="120" as="geometry" />
        </mxCell>
        <mxCell id="o-w49enw5CKkFs7Kxk6n-6" value="" style="rounded=1;whiteSpace=wrap;html=1;opacity=50;gradientColor=#E1F5FF;gradientDirection=north;" vertex="1" parent="1">
          <mxGeometry x="414" y="220" width="200" height="120" as="geometry" />
        </mxCell>
        <mxCell id="o-w49enw5CKkFs7Kxk6n-8" value="" style="rounded=1;whiteSpace=wrap;html=1;opacity=50;gradientColor=#E1F5FF;gradientDirection=north;" vertex="1" parent="1">
          <mxGeometry x="325" y="320" width="200" height="120" as="geometry" />
        </mxCell>
        <mxCell id="o-w49enw5CKkFs7Kxk6n-9" value="&lt;font style=&quot;font-size: 20px;&quot;&gt;机器学习&lt;/font&gt;" style="text;strokeColor=none;align=center;fillColor=none;html=1;verticalAlign=middle;whiteSpace=wrap;rounded=0;" vertex="1" parent="1">
          <mxGeometry x="369" y="180" width="100" height="30" as="geometry" />
        </mxCell>
        <mxCell id="o-w49enw5CKkFs7Kxk6n-10" value="&lt;font style=&quot;&quot;&gt;&lt;span style=&quot;font-size: 20px;&quot;&gt;监督学习&lt;/span&gt;&lt;br&gt;&lt;/font&gt;" style="text;strokeColor=none;align=center;fillColor=none;html=1;verticalAlign=middle;whiteSpace=wrap;rounded=0;" vertex="1" parent="1">
          <mxGeometry x="256.5" y="250" width="150" height="25" as="geometry" />
        </mxCell>
        <mxCell id="o-w49enw5CKkFs7Kxk6n-11" value="&lt;span style=&quot;font-size: 15px;&quot;&gt;图像识别、预测统计&lt;/span&gt;" style="text;strokeColor=none;align=center;fillColor=none;html=1;verticalAlign=middle;whiteSpace=wrap;rounded=0;" vertex="1" parent="1">
          <mxGeometry x="261.5" y="280" width="140" height="30" as="geometry" />
        </mxCell>
        <mxCell id="o-w49enw5CKkFs7Kxk6n-12" value="&lt;font style=&quot;&quot;&gt;&lt;span style=&quot;font-size: 20px;&quot;&gt;强化学习&lt;/span&gt;&lt;br&gt;&lt;/font&gt;" style="text;strokeColor=none;align=center;fillColor=none;html=1;verticalAlign=middle;whiteSpace=wrap;rounded=0;" vertex="1" parent="1">
          <mxGeometry x="460" y="250" width="150" height="25" as="geometry" />
        </mxCell>
        <mxCell id="o-w49enw5CKkFs7Kxk6n-13" value="&lt;span style=&quot;font-size: 15px;&quot;&gt;序列决策、动态优化&lt;/span&gt;" style="text;strokeColor=none;align=center;fillColor=none;html=1;verticalAlign=middle;whiteSpace=wrap;rounded=0;" vertex="1" parent="1">
          <mxGeometry x="465" y="280" width="140" height="30" as="geometry" />
        </mxCell>
        <mxCell id="o-w49enw5CKkFs7Kxk6n-14" value="&lt;font style=&quot;&quot;&gt;&lt;span style=&quot;font-size: 20px;&quot;&gt;无监督学习&lt;/span&gt;&lt;br&gt;&lt;/font&gt;" style="text;strokeColor=none;align=center;fillColor=none;html=1;verticalAlign=middle;whiteSpace=wrap;rounded=0;" vertex="1" parent="1">
          <mxGeometry x="350" y="360" width="150" height="25" as="geometry" />
        </mxCell>
        <mxCell id="o-w49enw5CKkFs7Kxk6n-15" value="&lt;span style=&quot;font-size: 15px;&quot;&gt;数据降维、特征提取&lt;/span&gt;" style="text;strokeColor=none;align=center;fillColor=none;html=1;verticalAlign=middle;whiteSpace=wrap;rounded=0;" vertex="1" parent="1">
          <mxGeometry x="355" y="390" width="140" height="30" as="geometry" />
        </mxCell>
      </root>
    </mxGraphModel>
  </diagram>
</mxfile>
